<svg width="241" height="38" viewBox="0 0 241 38" fill="none" xmlns="http://www.w3.org/2000/svg">
<path d="M97.0341 36.9034V1.99432H120.148V8.07955H104.415V16.3977H118.614V22.483H104.415V36.9034H97.0341Z" fill="black"/>
<path d="M124.554 36.9034V10.7216H131.594V15.2898H131.866C132.344 13.6648 133.145 12.4375 134.27 11.608C135.395 10.767 136.69 10.3466 138.156 10.3466C138.52 10.3466 138.912 10.3693 139.332 10.4148C139.753 10.4602 140.122 10.5227 140.44 10.6023V17.0455C140.099 16.9432 139.628 16.8523 139.026 16.7727C138.423 16.6932 137.872 16.6534 137.372 16.6534C136.304 16.6534 135.349 16.8864 134.508 17.3523C133.679 17.8068 133.02 18.4432 132.531 19.2614C132.054 20.0795 131.815 21.0227 131.815 22.0909V36.9034H124.554Z" fill="black"/>
<path d="M144.195 36.9034V10.7216H151.456V36.9034H144.195ZM147.842 7.34659C146.763 7.34659 145.837 6.98864 145.064 6.27273C144.303 5.54545 143.922 4.67614 143.922 3.66477C143.922 2.66477 144.303 1.80682 145.064 1.09091C145.837 0.363637 146.763 0 147.842 0C148.922 0 149.842 0.363637 150.604 1.09091C151.376 1.80682 151.763 2.66477 151.763 3.66477C151.763 4.67614 151.376 5.54545 150.604 6.27273C149.842 6.98864 148.922 7.34659 147.842 7.34659Z" fill="black"/>
<path d="M169.205 37.4148C166.511 37.4148 164.193 36.8693 162.25 35.7784C160.318 34.6761 158.83 33.1193 157.784 31.108C156.739 29.0852 156.216 26.6932 156.216 23.9318C156.216 21.2386 156.739 18.875 157.784 16.8409C158.83 14.8068 160.301 13.2216 162.199 12.0852C164.108 10.9489 166.347 10.3807 168.915 10.3807C170.642 10.3807 172.25 10.6591 173.739 11.2159C175.239 11.7614 176.545 12.5852 177.659 13.6875C178.784 14.7898 179.659 16.1761 180.284 17.8466C180.909 19.5057 181.222 21.4489 181.222 23.6761V25.6705H159.114V21.1705H174.386C174.386 20.125 174.159 19.1989 173.705 18.392C173.25 17.5852 172.619 16.9545 171.812 16.5C171.017 16.0341 170.091 15.8011 169.034 15.8011C167.932 15.8011 166.955 16.0568 166.102 16.5682C165.261 17.0682 164.602 17.7443 164.125 18.5966C163.648 19.4375 163.403 20.375 163.392 21.4091V25.6875C163.392 26.983 163.631 28.1023 164.108 29.0455C164.597 29.9886 165.284 30.7159 166.17 31.2273C167.057 31.7386 168.108 31.9943 169.324 31.9943C170.131 31.9943 170.869 31.8807 171.54 31.6534C172.21 31.4261 172.784 31.0852 173.261 30.6307C173.739 30.1761 174.102 29.6193 174.352 28.9602L181.068 29.4034C180.727 31.017 180.028 32.4261 178.972 33.6307C177.926 34.8239 176.574 35.7557 174.915 36.4261C173.267 37.0852 171.364 37.4148 169.205 37.4148Z" fill="black"/>
<path d="M193.222 21.767V36.9034H185.96V10.7216H192.881V15.3409H193.187C193.767 13.8182 194.739 12.6136 196.102 11.7273C197.466 10.8295 199.119 10.3807 201.062 10.3807C202.881 10.3807 204.466 10.7784 205.818 11.5739C207.17 12.3693 208.222 13.5057 208.972 14.983C209.722 16.4489 210.097 18.1989 210.097 20.233V36.9034H202.835V21.5284C202.847 19.9261 202.437 18.6761 201.608 17.7784C200.778 16.8693 199.636 16.4148 198.182 16.4148C197.205 16.4148 196.341 16.625 195.591 17.0455C194.852 17.4659 194.273 18.0795 193.852 18.8864C193.443 19.6818 193.233 20.642 193.222 21.767Z" fill="black"/>
<path d="M225.467 37.3295C223.479 37.3295 221.678 36.8182 220.064 35.7955C218.462 34.7614 217.189 33.2443 216.246 31.2443C215.314 29.233 214.848 26.767 214.848 23.8466C214.848 20.8466 215.331 18.3523 216.297 16.3636C217.263 14.3636 218.547 12.8693 220.149 11.8807C221.763 10.8807 223.53 10.3807 225.45 10.3807C226.916 10.3807 228.138 10.6307 229.115 11.1307C230.104 11.6193 230.899 12.233 231.501 12.9716C232.115 13.6989 232.581 14.4148 232.899 15.1193H233.121V1.99432H240.365V36.9034H233.206V32.7102H232.899C232.558 33.4375 232.075 34.1591 231.45 34.875C230.837 35.5795 230.035 36.1648 229.047 36.6307C228.07 37.0966 226.876 37.3295 225.467 37.3295ZM227.768 31.5511C228.939 31.5511 229.928 31.233 230.734 30.5966C231.553 29.9489 232.178 29.0455 232.609 27.8864C233.053 26.7273 233.274 25.3693 233.274 23.8125C233.274 22.2557 233.058 20.9034 232.626 19.7557C232.195 18.608 231.57 17.7216 230.751 17.0966C229.933 16.4716 228.939 16.1591 227.768 16.1591C226.575 16.1591 225.57 16.483 224.751 17.1307C223.933 17.7784 223.314 18.6761 222.893 19.8239C222.473 20.9716 222.263 22.3011 222.263 23.8125C222.263 25.3352 222.473 26.6818 222.893 27.8523C223.325 29.0114 223.945 29.9205 224.751 30.5795C225.57 31.2273 226.575 31.5511 227.768 31.5511Z" fill="black"/>
<path d="M104.966 36.9034V1.99432H81.8523V8.07955H97.5853V16.3977H83.3864V22.483H97.5853V36.9034H104.966Z" fill="black"/>
<path d="M67.1165 37.4148C69.7642 37.4148 72.054 36.8523 73.9858 35.7273C75.9063 34.5909 77.3892 33.0114 78.4347 30.9886C79.4801 28.9546 80.0029 26.5966 80.0029 23.9148C80.0029 21.2102 79.4801 18.8466 78.4347 16.8239C77.3892 14.7898 75.9063 13.2102 73.9858 12.0852C72.054 10.9489 69.7642 10.3807 67.1165 10.3807C64.4688 10.3807 62.1847 10.9489 60.2642 12.0852C58.3324 13.2102 56.8438 14.7898 55.7983 16.8239C54.7529 18.8466 54.2301 21.2102 54.2301 23.9148C54.2301 26.5966 54.7529 28.9546 55.7983 30.9886C56.8438 33.0114 58.3324 34.5909 60.2642 35.7273C62.1847 36.8523 64.4688 37.4148 67.1165 37.4148ZM67.0824 31.7898C65.8779 31.7898 64.8722 31.4489 64.0654 30.7671C63.2586 30.0739 62.6506 29.1307 62.2415 27.9375C61.8211 26.7443 61.6108 25.3864 61.6108 23.8636C61.6108 22.3409 61.8211 20.983 62.2415 19.7898C62.6506 18.5966 63.2586 17.6534 64.0654 16.9602C64.8722 16.2671 65.8779 15.9205 67.0824 15.9205C68.2983 15.9205 69.3211 16.2671 70.1506 16.9602C70.9688 17.6534 71.5881 18.5966 72.0086 19.7898C72.4176 20.983 72.6222 22.3409 72.6222 23.8636C72.6222 25.3864 72.4176 26.7443 72.0086 27.9375C71.5881 29.1307 70.9688 30.0739 70.1506 30.7671C69.3211 31.4489 68.2983 31.7898 67.0824 31.7898Z" fill="black"/>
<path d="M37.5767 37.4148C40.2699 37.4148 42.5881 36.8693 44.5313 35.7784C46.4631 34.6761 47.9517 33.1193 48.9972 31.108C50.0426 29.0852 50.5654 26.6932 50.5654 23.9318C50.5654 21.2386 50.0426 18.875 48.9972 16.8409C47.9517 14.8068 46.4801 13.2216 44.5824 12.0852C42.6733 10.9489 40.4347 10.3807 37.8665 10.3807C36.1392 10.3807 34.5313 10.6591 33.0426 11.2159C31.5426 11.7614 30.2358 12.5852 29.1222 13.6875C27.9972 14.7898 27.1222 16.1761 26.4972 17.8466C25.8722 19.5057 25.5597 21.4489 25.5597 23.6761V25.6705H47.6676V21.1705H32.3949C32.3949 20.125 32.6222 19.1989 33.0767 18.3921C33.5313 17.5852 34.162 16.9546 34.9688 16.5C35.7642 16.0341 36.6904 15.8011 37.7472 15.8011C38.8495 15.8011 39.8267 16.0568 40.679 16.5682C41.5199 17.0682 42.179 17.7443 42.6563 18.5966C43.1336 19.4375 43.3779 20.375 43.3892 21.4091V25.6875C43.3892 26.983 43.1506 28.1023 42.6733 29.0455C42.1847 29.9886 41.4972 30.7159 40.6108 31.2273C39.7245 31.7386 38.6733 31.9943 37.4574 31.9943C36.6506 31.9943 35.912 31.8807 35.2415 31.6534C34.5711 31.4261 33.9972 31.0852 33.5199 30.6307C33.0426 30.1761 32.679 29.6193 32.429 28.9602L25.7131 29.4034C26.054 31.0171 26.7529 32.4261 27.8097 33.6307C28.8551 34.8239 30.2074 35.7557 31.8665 36.4261C33.5142 37.0852 35.4176 37.4148 37.5767 37.4148Z" fill="black"/>
<path d="M0 15.9034H7V22.9034H0V15.9034Z" fill="#D33144" fill-opacity="0.88"/>
<path d="M7 15.9034H14V22.9034H7V15.9034Z" fill="#D37F31" fill-opacity="0.88"/>
<path d="M0 22.9034H7V29.9034H0V22.9034Z" fill="#C6D331" fill-opacity="0.88"/>
<path d="M0 29.9034H7V36.9034H0V29.9034Z" fill="#31D35F" fill-opacity="0.88"/>
<path d="M0 8.90344H7V15.9034H0V8.90344Z" fill="#AB4AD9"/>
<path d="M0 1.90344H7V8.90344H0V1.90344Z" fill="#3185D3"/>
<path d="M7 1.90344H14V8.90344H7V1.90344Z" fill="#3F31D3"/>
</svg>
